<svg version="1.1" xmlns="http://www.w3.org/2000/svg" xmlns:xlink="http://www.w3.org/1999/xlink" x="0px" y="0px"
	 viewBox="0 0 397.4 240.3" xml:space="preserve">
<g id="Layer_2" class="st0">
	<g id="_x36_nLkGH.tif" class="st1">
			<image style="overflow:visible;" width="464" height="568" id="Layer_0_1_" xlink:href="27929328EEB390B7.png"  transform="matrix(0.5 0 0 0.5 -54.079 200.4705)">
		</image>
	</g>
</g>
<g id="Layer_1">
	<g>
		<g>
			<path d="M356.1,0c0.9,4,1.3,8.1,1.3,12.3v129.3c0,32.3-26.4,58.7-58.7,58.7h-95c-2.3,0-4.5-0.1-6.7-0.4l40,40
				c2.2,0.3,4.5,0.4,6.7,0.4h95c32.3,0,58.7-26.4,58.7-58.7V52.3c0-4.2-0.5-8.3-1.3-12.3L356.1,0z"/>
			<path d="M295.7,21.7h-19.8h-13.1h-21.5v21.5v95.6v21.5h21.5h13.1h5.4V61.7h36V43.2C317.2,31.3,307.6,21.7,295.7,21.7z"/>
		</g>
		<g>
			<path d="M159.1,0c0.9,4,1.3,8.1,1.3,12.3v129.3c0,32.3-26.4,58.7-58.7,58.7h-95c-2.3,0-4.5-0.1-6.7-0.4l40,40
				c2.2,0.3,4.5,0.4,6.7,0.4h95c32.3,0,58.7-26.4,58.7-58.7V52.3c0-4.2-0.5-8.3-1.3-12.3L159.1,0z"/>
			<path d="M98.7,21.7H78.9H65.8H44.2v21.5v95.6v21.5h21.5h13.1h5.4V61.7h36V43.2C120.2,31.3,110.6,21.7,98.7,21.7z"/>
		</g>
	</g>
</g>
</svg>
